<?xml version="1.0" standalone="no"?><!DOCTYPE svg PUBLIC "-//W3C//DTD SVG 1.1//EN" "http://www.w3.org/Graphics/SVG/1.1/DTD/svg11.dtd"><svg t="1556906604196" class="icon" style="" viewBox="0 0 1024 1024" version="1.1" xmlns="http://www.w3.org/2000/svg" p-id="2677" xmlns:xlink="http://www.w3.org/1999/xlink" width="64" height="64"><defs><style type="text/css"></style></defs><path d="M512 65.2c-246.8 0-446.8 200-446.8 446.8s200 446.8 446.8 446.8 446.8-200 446.8-446.8S758.8 65.2 512 65.2z m278.1 290.6L467 740.9c-11.5 13.7-28.2 19.6-44.8 19-16.6 0.6-33.3-5.3-44.8-19L233.9 569.7c-19.8-23.6-16.7-58.9 6.9-78.7 23.6-19.8 58.8-16.7 78.7 6.9l102.8 122.5L704.6 284c19.8-23.6 55.1-26.7 78.7-6.9 23.6 19.9 26.7 55.1 6.8 78.7z" fill="#fe7b24" p-id="2678"></path></svg>